<svg width="12" height="10" viewBox="0 0 12 10" fill="none" xmlns="http://www.w3.org/2000/svg">
<path fill-rule="evenodd" clip-rule="evenodd" d="M0 0.833333C0 0.61232 0.0877973 0.400358 0.244078 0.244078C0.400358 0.0877975 0.61232 0 0.833333 0H10.8333C11.0543 0 11.2663 0.0877975 11.4226 0.244078C11.5789 0.400358 11.6667 0.61232 11.6667 0.833333C11.6667 1.05435 11.5789 1.26631 11.4226 1.42259C11.2663 1.57887 11.0543 1.66667 10.8333 1.66667H0.833333C0.61232 1.66667 0.400358 1.57887 0.244078 1.42259C0.0877973 1.26631 0 1.05435 0 0.833333ZM0 5C0 4.77899 0.0877973 4.56702 0.244078 4.41074C0.400358 4.25446 0.61232 4.16667 0.833333 4.16667H10.8333C11.0543 4.16667 11.2663 4.25446 11.4226 4.41074C11.5789 4.56702 11.6667 4.77899 11.6667 5C11.6667 5.22101 11.5789 5.43298 11.4226 5.58926C11.2663 5.74554 11.0543 5.83333 10.8333 5.83333H0.833333C0.61232 5.83333 0.400358 5.74554 0.244078 5.58926C0.0877973 5.43298 0 5.22101 0 5ZM0 9.16667C0 8.94565 0.0877973 8.73369 0.244078 8.57741C0.400358 8.42113 0.61232 8.33333 0.833333 8.33333H10.8333C11.0543 8.33333 11.2663 8.42113 11.4226 8.57741C11.5789 8.73369 11.6667 8.94565 11.6667 9.16667C11.6667 9.38768 11.5789 9.59964 11.4226 9.75592C11.2663 9.9122 11.0543 10 10.8333 10H0.833333C0.61232 10 0.400358 9.9122 0.244078 9.75592C0.0877973 9.59964 0 9.38768 0 9.16667Z" fill="white"/>
</svg>
